<svg width="25" height="24" viewBox="0 0 25 24" fill="none" xmlns="http://www.w3.org/2000/svg">
<g id="vuesax/bulk/box-search">
<g id="box-search">
<path id="Vector" opacity="0.4" d="M20.4332 6.93998C20.4332 7.47998 20.1432 7.96995 19.6832 8.21995L17.9431 9.15995L16.4632 9.94999L13.3932 11.61C13.0632 11.79 12.7032 11.88 12.3332 11.88C11.9632 11.88 11.6032 11.79 11.2732 11.61L4.98315 8.21995C4.52315 7.96995 4.23315 7.47998 4.23315 6.93998C4.23315 6.39998 4.52315 5.90995 4.98315 5.65995L6.95316 4.59996L8.52316 3.74998L11.2732 2.27C11.9332 1.91 12.7332 1.91 13.3932 2.27L19.6832 5.65995C20.1432 5.90995 20.4332 6.39998 20.4332 6.93998Z" fill="#A586FE"/>
<path id="Vector_2" opacity="0.4" d="M10.2332 12.79L4.38321 9.86001C3.93321 9.63001 3.41322 9.66001 2.98322 9.92001C2.55322 10.18 2.30322 10.64 2.30322 11.14V16.67C2.30322 17.63 2.83321 18.49 3.69321 18.92L9.54321 21.8401C9.74321 21.9401 9.96323 21.99 10.1832 21.99C10.4432 21.99 10.7032 21.92 10.9332 21.77C11.3632 21.51 11.6132 21.05 11.6132 20.55V15.02C11.6232 14.08 11.0932 13.22 10.2332 12.79Z" fill="#A586FE"/>
<path id="Vector_3" opacity="0.4" d="M22.3632 11.15V16.68C22.3632 17.63 21.8332 18.49 20.9732 18.92L15.1232 21.85C14.9232 21.95 14.7032 22 14.4832 22C14.2232 22 13.9632 21.93 13.7232 21.78C13.3032 21.52 13.0432 21.06 13.0432 20.56V15.04C13.0432 14.08 13.5732 13.22 14.4332 12.79L16.5832 11.72L18.0832 10.97L20.2832 9.87C20.7332 9.64 21.2532 9.66 21.6832 9.93C22.1032 10.19 22.3632 10.65 22.3632 11.15Z" fill="#A586FE"/>
<path id="Vector_4" d="M22.9333 21.64L22.1733 20.88C22.5733 20.28 22.8033 19.56 22.8033 18.79C22.8033 16.68 21.0933 14.97 18.9833 14.97C16.8733 14.97 15.1633 16.68 15.1633 18.79C15.1633 20.9 16.8733 22.61 18.9833 22.61C19.7533 22.61 20.4733 22.38 21.0733 21.98L21.8333 22.74C21.9833 22.89 22.1833 22.97 22.3833 22.97C22.5833 22.97 22.7833 22.89 22.9333 22.74C23.2333 22.43 23.2333 21.94 22.9333 21.64Z" fill="#A586FE"/>
</g>
</g>
</svg>
