<svg width="48" height="48" viewBox="0 0 48 48" fill="none" xmlns="http://www.w3.org/2000/svg">
<g id="vuesax/bulk/book">
<g id="book">
<path id="Vector" opacity="0.4" d="M24 10.6V42.66C23.66 42.66 23.3 42.6 23.02 42.44L22.94 42.4C19.1 40.3 12.4 38.1 8.06 37.52L7.48 37.44C5.56 37.2 4 35.4 4 33.48V9.32C4 6.94 5.94 5.14 8.32 5.34C12.52 5.68 18.88 7.8 22.44 10.02L22.94 10.32C23.24 10.5 23.62 10.6 24 10.6Z" fill="#A586FE"/>
<path id="Vector_2" d="M44 9.34V33.48C44 35.4 42.44 37.2 40.52 37.44L39.86 37.52C35.5 38.1 28.78 40.32 24.94 42.44C24.68 42.6 24.36 42.66 24 42.66V10.6C24.38 10.6 24.76 10.5 25.06 10.32L25.4 10.1C28.96 7.86 35.34 5.72 39.54 5.36H39.66C42.04 5.16 44 6.94 44 9.34Z" fill="#A586FE"/>
<path id="Vector_3" d="M15.5 18.48H11C10.18 18.48 9.5 17.8 9.5 16.98C9.5 16.16 10.18 15.48 11 15.48H15.5C16.32 15.48 17 16.16 17 16.98C17 17.8 16.32 18.48 15.5 18.48Z" fill="#A586FE"/>
<path id="Vector_4" d="M17 24.48H11C10.18 24.48 9.5 23.8 9.5 22.98C9.5 22.16 10.18 21.48 11 21.48H17C17.82 21.48 18.5 22.16 18.5 22.98C18.5 23.8 17.82 24.48 17 24.48Z" fill="#A586FE"/>
</g>
</g>
</svg>
