<svg width="48" height="48" viewBox="0 0 48 48" fill="none" xmlns="http://www.w3.org/2000/svg">
<g id="vuesax/bulk/brifecase-timer">
<g id="brifecase-timer">
<path id="Vector" d="M22.26 31.76C21.76 31.76 21.26 31.5 20.98 31.04C20.56 30.34 20.78 29.4 21.5 28.98L23.28 27.92V25.76C23.28 24.94 23.96 24.26 24.78 24.26C25.6 24.26 26.28 24.94 26.28 25.76V28.76C26.28 29.28 26 29.78 25.56 30.04L23.06 31.54C22.78 31.68 22.52 31.76 22.26 31.76Z" fill="#A586FE"/>
<path id="Vector_2" opacity="0.4" d="M43.7001 22.82L42.46 36.38C42.0401 40.38 40.4 44.46 31.6 44.46H16.36C7.56005 44.46 5.92005 40.38 5.52005 36.4L4.30005 23.38C4.32005 23.4 4.34005 23.42 4.38005 23.44C5.06005 23.88 5.72005 24.32 6.44005 24.72C6.72005 24.9 7.02005 25.06 7.32005 25.22C9.58005 26.46 12 27.44 14.5 28.12C15.5 28.42 16.52 28.64 17.56 28.82C17.96 32.02 20.7001 34.5 24 34.5C27.34 34.5 30.1 31.96 30.46 28.7V28.68C31.48 28.48 32.5 28.22 33.5 27.92C36 27.14 38.4201 26.1 40.68 24.78C40.8 24.72 40.9 24.66 40.98 24.6C41.9 24.1 42.78 23.52 43.62 22.92C43.66 22.9 43.68 22.86 43.7001 22.82Z" fill="#A586FE"/>
<path id="Vector_3" d="M42.1801 13.96C40.4801 12.08 37.6601 11.14 33.5201 11.14H33.0401V11.06C33.0401 7.69999 33.0401 3.53999 25.5201 3.53999H22.4801C14.9601 3.53999 14.9601 7.69999 14.9601 11.06V11.14H14.4801C10.3401 11.14 7.50007 12.08 5.82008 13.96C3.84008 16.18 3.90007 19.12 4.10007 21.14L4.12007 21.28L4.30008 23.38C4.32008 23.4 4.36007 23.42 4.40007 23.44C5.08008 23.88 5.74007 24.32 6.46007 24.72C6.74007 24.9 7.04008 25.06 7.34008 25.22C9.60007 26.46 12.0201 27.44 14.5001 28.12C14.5601 33.3 18.8001 37.5 24.0001 37.5C29.2401 37.5 33.5001 33.24 33.5001 28V27.92C36.0201 27.16 38.4401 26.1 40.7001 24.78C40.8201 24.72 40.9001 24.66 41.0001 24.6C41.9201 24.1 42.8001 23.52 43.6401 22.92C43.6601 22.9 43.7001 22.86 43.7201 22.82L43.8001 22.1L43.9001 21.16C43.9201 21.04 43.9201 20.94 43.9401 20.8C44.1001 18.8 44.0601 16.04 42.1801 13.96ZM17.8201 11.06C17.8201 7.65999 17.8201 6.37999 22.4801 6.37999H25.5201C30.1801 6.37999 30.1801 7.65999 30.1801 11.06V11.14H17.8201V11.06ZM24.0001 34.5C20.7001 34.5 17.9601 32.02 17.5601 28.82C17.5201 28.56 17.5001 28.28 17.5001 28C17.5001 24.42 20.4201 21.5 24.0001 21.5C27.5801 21.5 30.5001 24.42 30.5001 28C30.5001 28.24 30.4801 28.46 30.4601 28.68V28.7C30.1001 31.96 27.3401 34.5 24.0001 34.5Z" fill="#A586FE"/>
</g>
</g>
</svg>
