<svg width="240" height="240" viewBox="0 0 240 240" fill="none" xmlns="http://www.w3.org/2000/svg">
<g id="vuesax/bulk/messages-3">
<g id="messages-3">
<path id="Vector" opacity="0.4" d="M220 62.5V113.5C220 126.2 215.8 136.9 208.3 144.3C200.9 151.8 190.2 156 177.5 156V174.1C177.5 180.9 169.9 185 164.3 181.2L154.6 174.8C155.5 171.7 155.9 168.3 155.9 164.7V124C155.9 103.6 142.3 90 121.9 90H53.9999C52.5999 90 51.3 90.1002 50 90.2002V62.5C50 37 67 20 92.5 20H177.5C203 20 220 37 220 62.5Z" fill="#98A2B3"/>
<path id="Vector_2" d="M155.9 124V164.7C155.9 168.3 155.5 171.7 154.6 174.8C150.9 189.5 138.7 198.7 121.9 198.7H94.7L64.5 218.8C60 221.9 53.9999 218.6 53.9999 213.2V198.7C43.7999 198.7 35.3 195.3 29.4 189.4C23.4 183.4 20 174.9 20 164.7V124C20 105 31.8 91.9002 50 90.2002C51.3 90.1002 52.5999 90 53.9999 90H121.9C142.3 90 155.9 103.6 155.9 124Z" fill="#98A2B3"/>
</g>
</g>
</svg>
