<svg width="25" height="24" viewBox="0 0 25 24" fill="none" xmlns="http://www.w3.org/2000/svg">
<g id="Bot" clip-path="url(#clip0_2214_537)">
<path id="Vector" d="M2.40044 12.1704V17.1345H1.57544C0.891064 17.1392 0.333252 16.5813 0.333252 15.897V13.4126C0.333252 12.7282 0.891064 12.1704 1.57544 12.1704H2.40044Z" fill="#A586FE"/>
<path id="Vector_2" d="M24.338 13.4126V15.897C24.338 16.5813 23.7802 17.1392 23.0958 17.1392H22.2661V12.1704H23.0958C23.7802 12.1704 24.338 12.7282 24.338 13.4126Z" fill="#A586FE"/>
<path id="Vector_3" opacity="0.4" d="M19.7816 7.61865H4.88477C3.51133 7.61865 2.40039 8.72959 2.40039 10.103V19.2062C2.40039 20.5796 3.51602 21.6905 4.88477 21.6905H19.7816C21.1551 21.6905 22.266 20.5796 22.266 19.2062V10.103C22.266 8.73428 21.1551 7.61865 19.7816 7.61865ZM7.36914 15.0671C6.45508 15.0671 5.71445 14.3265 5.71445 13.4124C5.71445 12.4983 6.45508 11.7577 7.36914 11.7577C8.2832 11.7577 9.02383 12.4983 9.02383 13.4124C9.02383 14.3265 8.2832 15.0671 7.36914 15.0671ZM14.752 16.9468C14.7285 16.9843 14.0957 17.964 12.3332 17.964C10.5707 17.964 9.93789 16.9843 9.91445 16.9421C9.79726 16.7499 9.85352 16.4968 10.0457 16.3796C10.2379 16.2577 10.4863 16.314 10.6129 16.5015C10.6363 16.539 11.0723 17.139 12.3332 17.139C13.6082 17.139 14.0395 16.5249 14.0535 16.5015C14.1801 16.314 14.4332 16.2624 14.6254 16.3843C14.8129 16.5062 14.8738 16.7546 14.752 16.9468ZM17.2973 15.0671C16.3832 15.0671 15.6426 14.3265 15.6426 13.4124C15.6426 12.4983 16.3832 11.7577 17.2973 11.7577C18.2113 11.7577 18.952 12.4983 18.952 13.4124C18.952 14.3265 18.2113 15.0671 17.2973 15.0671Z" fill="#A586FE"/>
<path id="Oval" d="M12.3332 4.30937C13.247 4.30937 13.9878 3.56855 13.9878 2.65469C13.9878 1.74083 13.247 1 12.3332 1C11.4193 1 10.6785 1.74083 10.6785 2.65469C10.6785 3.56855 11.4193 4.30937 12.3332 4.30937Z" fill="#A586FE"/>
<path id="Vector_4" opacity="0.4" d="M11.9535 4.26719C11.9441 4.2625 11.93 4.2625 11.9207 4.25781V7.61875H12.7457V4.25781C12.4925 4.32344 12.2253 4.32812 11.9535 4.26719Z" fill="#A586FE"/>
<path id="Vector_5" d="M9.02397 13.4125C9.02397 14.3266 8.28335 15.0672 7.36929 15.0672C6.45522 15.0672 5.7146 14.3266 5.7146 13.4125C5.7146 12.4984 6.45522 11.7578 7.36929 11.7578C8.28335 11.7578 9.02397 12.4984 9.02397 13.4125ZM17.2974 11.7578C16.3833 11.7578 15.6427 12.4984 15.6427 13.4125C15.6427 14.3266 16.3833 15.0672 17.2974 15.0672C18.2115 15.0672 18.9521 14.3266 18.9521 13.4125C18.9521 12.4984 18.2115 11.7578 17.2974 11.7578ZM14.6255 16.3844C14.4333 16.2625 14.1802 16.3141 14.0537 16.5016C14.0396 16.525 13.6083 17.1391 12.3333 17.1391C11.0724 17.1391 10.6365 16.5391 10.613 16.5016C10.4865 16.3141 10.238 16.2578 10.0458 16.3797C9.85366 16.4969 9.79741 16.75 9.9146 16.9422C9.93804 16.9844 10.5708 17.9641 12.3333 17.9641C14.0958 17.9641 14.7287 16.9844 14.7521 16.9469C14.874 16.7547 14.813 16.5063 14.6255 16.3844Z" fill="#A586FE"/>
</g>
<defs>
<clipPath id="clip0_2214_537">
<rect width="24" height="24" fill="white" transform="translate(0.333252)"/>
</clipPath>
</defs>
</svg>
