<svg width="25" height="24" viewBox="0 0 25 24" fill="none" xmlns="http://www.w3.org/2000/svg">
<g id="vuesax/bulk/monitor">
<g id="monitor">
<path id="Vector" opacity="0.4" d="M22.6365 6.41V12.91H2.6665V6.41C2.6665 3.98 4.6465 2 7.0765 2H18.2265C20.6565 2 22.6365 3.98 22.6365 6.41Z" fill="#A586FE"/>
<path id="Vector_2" d="M2.6665 12.92V13.12C2.6665 15.56 4.6465 17.53 7.0765 17.53H10.9165C11.4665 17.53 11.9165 17.98 11.9165 18.53V19.5C11.9165 20.05 11.4665 20.5 10.9165 20.5H8.4965C8.0865 20.5 7.7465 20.84 7.7465 21.25C7.7465 21.66 8.0765 22 8.4965 22H16.8465C17.2565 22 17.5965 21.66 17.5965 21.25C17.5965 20.84 17.2565 20.5 16.8465 20.5H14.4265C13.8765 20.5 13.4265 20.05 13.4265 19.5V18.53C13.4265 17.98 13.8765 17.53 14.4265 17.53H18.2365C20.6765 17.53 22.6465 15.55 22.6465 13.12V12.92H2.6665Z" fill="#A586FE"/>
</g>
</g>
</svg>
