<svg width="48" height="48" viewBox="0 0 48 48" fill="none" xmlns="http://www.w3.org/2000/svg">
<g id="vuesax/bulk/dollar-square">
<g id="dollar-square">
<path id="Vector" opacity="0.4" d="M32.38 4H15.62C8.34 4 4 8.34 4 15.62V32.36C4 39.66 8.34 44 15.62 44H32.36C39.64 44 43.98 39.66 43.98 32.38V15.62C44 8.34 39.66 4 32.38 4Z" fill="#A586FE"/>
<path id="Vector_2" d="M28.5201 24L25.5001 22.94V16.16H26.2201C27.8401 16.16 29.1601 17.58 29.1601 19.32C29.1601 20.14 29.8401 20.82 30.6601 20.82C31.4801 20.82 32.1601 20.14 32.1601 19.32C32.1601 15.92 29.5001 13.16 26.2201 13.16H25.5001V12C25.5001 11.18 24.8201 10.5 24.0001 10.5C23.1801 10.5 22.5001 11.18 22.5001 12V13.16H21.2001C18.2401 13.16 15.8201 15.66 15.8201 18.72C15.8201 22.3 17.9001 23.44 19.4801 24L22.5001 25.06V31.82H21.7801C20.1601 31.82 18.8401 30.4 18.8401 28.66C18.8401 27.84 18.1601 27.16 17.3401 27.16C16.5201 27.16 15.8401 27.84 15.8401 28.66C15.8401 32.06 18.5001 34.82 21.7801 34.82H22.5001V36C22.5001 36.82 23.1801 37.5 24.0001 37.5C24.8201 37.5 25.5001 36.82 25.5001 36V34.84H26.8001C29.7601 34.84 32.1801 32.34 32.1801 29.28C32.1601 25.68 30.0801 24.54 28.5201 24ZM20.4801 21.18C19.4601 20.82 18.8401 20.48 18.8401 18.74C18.8401 17.32 19.9001 16.18 21.2201 16.18H22.5201V21.9L20.4801 21.18ZM26.8001 31.84H25.5001V26.12L27.5201 26.82C28.5401 27.18 29.1601 27.52 29.1601 29.26C29.1601 30.68 28.1001 31.84 26.8001 31.84Z" fill="#A586FE"/>
</g>
</g>
</svg>
