<svg width="25" height="24" viewBox="0 0 25 24" fill="none" xmlns="http://www.w3.org/2000/svg">
<g id="vuesax/bulk/bitcoin-(btc)">
<g id="bitcoin-(btc)">
<path id="Vector" opacity="0.4" d="M12.6665 22C18.1894 22 22.6665 17.5228 22.6665 12C22.6665 6.47715 18.1894 2 12.6665 2C7.14366 2 2.6665 6.47715 2.6665 12C2.6665 17.5228 7.14366 22 12.6665 22Z" fill="#A586FE"/>
<path id="Vector_2" d="M17.1566 11.61C17.5366 11.12 17.7766 10.5 17.7766 9.83C17.7766 8.28 16.4166 6.91 14.8566 6.91H13.9766V5.5C13.9766 5.09 13.6366 4.75 13.2266 4.75C12.8166 4.75 12.4766 5.09 12.4766 5.5V6.92H11.4966H11.2666V5.5C11.2666 5.09 10.9266 4.75 10.5166 4.75C10.1066 4.75 9.78655 5.09 9.78655 5.5V6.92H9.44655H7.71655C7.30655 6.92 6.96655 7.26 6.96655 7.67C6.96655 8.08 7.30655 8.42 7.71655 8.42H8.69655V12V15.58H7.71655C7.30655 15.58 6.96655 15.92 6.96655 16.33C6.96655 16.74 7.30655 17.08 7.71655 17.08H9.44655H9.77655V18.5C9.77655 18.91 10.1166 19.25 10.5266 19.25C10.9366 19.25 11.2766 18.91 11.2766 18.5V17.08H11.5066H12.4866V18.5C12.4866 18.91 12.8266 19.25 13.2366 19.25C13.6466 19.25 13.9866 18.91 13.9866 18.5V17.08H15.6366C17.4166 17.08 18.8666 15.77 18.8666 14.16C18.8666 13.06 18.1666 12.1 17.1566 11.61ZM11.5066 8.42H14.8666C15.6666 8.42 16.2866 9.18 16.2866 9.84C16.2866 10.62 15.6466 11.26 14.8666 11.26H10.1966V8.42H11.5066ZM15.6366 15.58H11.5066H10.1966V12.75H14.8666H15.6366C16.5866 12.75 17.3666 13.39 17.3666 14.17C17.3666 14.95 16.5866 15.58 15.6366 15.58Z" fill="#A586FE"/>
</g>
</g>
</svg>
