<svg width="24" height="24" viewBox="0 0 24 24" fill="none" xmlns="http://www.w3.org/2000/svg">
<g id="vuesax/bulk/favorite-chart">
<g id="favorite-chart">
<path id="Vector" opacity="0.4" d="M22 7.81V15.16C21.71 15.02 21.39 14.92 21.03 14.86L20.72 14.81L20.46 14.27C19.91 13.15 19.01 12.5 18 12.5C16.99 12.5 16.09 13.15 15.54 14.27L15.27 14.81L14.97 14.86C13.78 15.06 12.92 15.72 12.61 16.66C12.31 17.61 12.62 18.65 13.47 19.51L13.78 19.82L13.75 19.94C13.55 20.83 13.63 21.51 13.82 22H7.81C4.17 22 2 19.83 2 16.19V7.81C2 4.17 4.17 2 7.81 2H16.19C19.83 2 22 4.17 22 7.81Z" fill="#A586FE"/>
<path id="Vector_2" d="M19.1199 14.94L19.4399 15.59C19.5999 15.91 20.0099 16.21 20.3499 16.27L20.7799 16.34C22.0899 16.56 22.3899 17.52 21.4599 18.46L21.0599 18.86C20.7899 19.13 20.6499 19.65 20.7299 20.03L20.7799 20.27C21.1399 21.85 20.2999 22.46 18.9299 21.63L18.6399 21.45C18.2899 21.24 17.7099 21.24 17.3599 21.45L17.0699 21.63C15.6899 22.46 14.8599 21.85 15.2199 20.27L15.2699 20.03C15.3499 19.66 15.2099 19.13 14.9399 18.86L14.5399 18.46C13.6099 17.51 13.9099 16.56 15.2199 16.34L15.6499 16.27C15.9999 16.21 16.3999 15.91 16.5599 15.59L16.8799 14.94C17.4999 13.69 18.4999 13.69 19.1199 14.94Z" fill="#A586FE"/>
<path id="Vector (Stroke)" fill-rule="evenodd" clip-rule="evenodd" d="M16.1294 7.91722C16.4568 8.17099 16.5164 8.64211 16.2627 8.96948L13.9482 11.9552C13.3533 12.7075 12.2565 12.8447 11.4913 12.2534L11.4861 12.2494L9.65952 10.8121C9.54667 10.7264 9.38927 10.7477 9.30358 10.8583C9.3035 10.8584 9.30366 10.8582 9.30358 10.8583L6.92405 13.9476C6.6713 14.2758 6.20037 14.3369 5.87222 14.0842C5.54406 13.8314 5.48293 13.3605 5.73569 13.0323L8.11641 9.9414C8.71032 9.17281 9.81153 9.0339 10.5785 9.62652L10.5837 9.63056L12.4103 11.0679C12.5243 11.1545 12.685 11.1322 12.7701 11.0267L15.0771 8.05049C15.3309 7.72312 15.802 7.66345 16.1294 7.91722Z" fill="#A586FE"/>
</g>
</g>
</svg>
